<svg width="132" height="20" viewBox="0 0 132 20" fill="none" xmlns="http://www.w3.org/2000/svg">
<path d="M10.9101 0.597404L13.1545 5.14502C13.3105 5.46131 13.6123 5.68047 13.9614 5.73111L18.9801 6.46041C19.8592 6.58825 20.21 7.66829 19.5741 8.28801L15.9426 11.8278C15.6902 12.0739 15.5748 12.4288 15.6346 12.7763L16.4917 17.7747C16.642 18.6501 15.723 19.3175 14.9368 18.9045L10.4481 16.5448C10.136 16.3808 9.76284 16.3808 9.4507 16.5448L4.96203 18.9045C4.17587 19.3179 3.25688 18.6501 3.40714 17.7747L4.26428 12.7763C4.32405 12.4288 4.20866 12.0739 3.95629 11.8278L0.324755 8.28801C-0.311148 7.66788 0.0395947 6.58784 0.918734 6.46041L5.93747 5.73111C6.28655 5.68047 6.58831 5.46131 6.74438 5.14502L8.98872 0.597404C9.38138 -0.199135 10.517 -0.199135 10.9101 0.597404Z" fill="#FBA229"/>
<path d="M38.8089 0.597404L41.0533 5.14502C41.2093 5.46131 41.5111 5.68047 41.8602 5.73111L46.8789 6.46041C47.7581 6.58825 48.1088 7.66829 47.4729 8.28801L43.8414 11.8278C43.589 12.0739 43.4736 12.4288 43.5334 12.7763L44.3905 17.7747C44.5408 18.6501 43.6218 19.3175 42.8356 18.9045L38.3469 16.5448C38.0348 16.3808 37.6616 16.3808 37.3495 16.5448L32.8608 18.9045C32.0747 19.3179 31.1557 18.6501 31.3059 17.7747L32.1631 12.7763C32.2229 12.4288 32.1075 12.0739 31.8551 11.8278L28.2236 8.28801C27.5877 7.66788 27.9384 6.58784 28.8175 6.46041L33.8363 5.73111C34.1854 5.68047 34.4871 5.46131 34.6432 5.14502L36.8875 0.597404C37.2802 -0.199135 38.4158 -0.199135 38.8089 0.597404Z" fill="#FBA229"/>
<path d="M66.7078 0.597404L68.9521 5.14502C69.1082 5.46131 69.41 5.68047 69.759 5.73111L74.7778 6.46041C75.6569 6.58825 76.0077 7.66829 75.3718 8.28801L71.7402 11.8278C71.4879 12.0739 71.3725 12.4288 71.4322 12.7763L72.2894 17.7747C72.4396 18.6501 71.5206 19.3175 70.7345 18.9045L66.2458 16.5448C65.9337 16.3808 65.5605 16.3808 65.2484 16.5448L60.7597 18.9045C59.9735 19.3179 59.0545 18.6501 59.2048 17.7747L60.0619 12.7763C60.1217 12.4288 60.0063 12.0739 59.754 11.8278L56.1224 8.28801C55.4865 7.66788 55.8373 6.58784 56.7164 6.46041L61.7351 5.73111C62.0842 5.68047 62.386 5.46131 62.5421 5.14502L64.7864 0.597404C65.1791 -0.199135 66.3147 -0.199135 66.7078 0.597404Z" fill="#FBA229"/>
<path d="M94.6067 0.597404L96.851 5.14502C97.0071 5.46131 97.3088 5.68047 97.6579 5.73111L102.677 6.46041C103.556 6.58825 103.907 7.66829 103.271 8.28801L99.6391 11.8278C99.3867 12.0739 99.2713 12.4288 99.3311 12.7763L100.188 17.7747C100.338 18.6501 99.4195 19.3175 98.6333 18.9045L94.1447 16.5448C93.8325 16.3808 93.4594 16.3808 93.1472 16.5448L88.6586 18.9045C87.8724 19.3179 86.9534 18.6501 87.1037 17.7747L87.9608 12.7763C88.0206 12.4288 87.9052 12.0739 87.6528 11.8278L84.0213 8.28801C83.3854 7.66788 83.7361 6.58784 84.6153 6.46041L89.634 5.73111C89.9831 5.68047 90.2848 5.46131 90.4409 5.14502L92.6853 0.597404C93.0779 -0.199135 94.2136 -0.199135 94.6067 0.597404Z" fill="#FBA229"/>
<path d="M122.505 0.597404L124.75 5.14502C124.906 5.46131 125.208 5.68047 125.557 5.73111L130.575 6.46041C131.455 6.58825 131.805 7.66829 131.169 8.28801L127.538 11.8278C127.286 12.0739 127.17 12.4288 127.23 12.7763L128.087 17.7747C128.237 18.6501 127.318 19.3175 126.532 18.9045L122.043 16.5448C121.731 16.3808 121.358 16.3808 121.046 16.5448L116.557 18.9045C115.771 19.3179 114.852 18.6501 115.002 17.7747L115.86 12.7763C115.919 12.4288 115.804 12.0739 115.552 11.8278L111.92 8.28801C111.284 7.66788 111.635 6.58784 112.514 6.46041L117.533 5.73111C117.882 5.68047 118.184 5.46131 118.34 5.14502L120.584 0.597404C120.977 -0.199135 122.112 -0.199135 122.505 0.597404Z" fill="#FBA229"/>
</svg>
